<?xml version="1.0"?>
<svg xmlns="http://www.w3.org/2000/svg" viewBox="0 0 280 280" width="280" height="280">
  <title>J24:15 — Software House</title>

  <path d="M 136 36 Q 140 30 144 36 L 196 86 L 196 62 Q 196 52 206 52 L 222 52 Q 232 52 232 62 L 232 122 L 244 134 Q 250 140 250 150 L 250 226 Q 250 246 230 246 L 50 246 Q 30 246 30 226 L 30 150 Q 30 140 36 134 L 136 36 Z" fill="#000000"></path>
  <path d="M 129 70 L 155 70 L 155 100 L 177 100 L 177 123 L 155 123 L 155 175 C 155 200 142 220 113 220 C 80 220 60 200 60 175 L 60 167 A 14 14 0 0 1 88 167 L 88 175 C 88 190 100 197 113 197 C 125 197 129 192 129 175 L 129 123 L 107 123 L 107 100 L 129 100 Z" fill="#FFFFFF"></path>


</svg>