<?xml version="1.0" standalone="no"?>
<!DOCTYPE svg PUBLIC "-//W3C//DTD SVG 20010904//EN"
 "http://www.w3.org/TR/2001/REC-SVG-20010904/DTD/svg10.dtd">
<svg version="1.0" xmlns="http://www.w3.org/2000/svg"
 width="512.000000pt" height="512.000000pt" viewBox="0 0 512.000000 512.000000"
 preserveAspectRatio="xMidYMid meet">

<g transform="translate(0.000000,512.000000) scale(0.100000,-0.100000)"
fill="#000000" stroke="none">
<path d="M2 3643 l3 -1478 22 1 c26 2 20 -22 -8 -29 -19 -5 -19 -26 -19 -1071
l0 -1066 1215 0 1215 0 -80 161 c-116 232 -203 383 -268 468 -31 41 -68 91
-82 111 -14 21 -67 93 -118 160 -261 344 -352 549 -321 726 10 58 9 71 -10
122 -11 31 -32 107 -46 167 -14 61 -34 144 -44 185 -10 41 -25 103 -32 138
-10 47 -21 70 -46 94 l-33 32 16 -49 c39 -123 44 -147 28 -141 -8 3 -14 1 -14
-5 0 -6 -9 -7 -22 -3 -13 4 -31 7 -41 6 -10 0 -21 6 -24 14 -3 8 -10 14 -15
14 -6 0 -8 -7 -4 -15 6 -17 -9 -21 -19 -5 -4 6 -11 7 -17 4 -6 -4 -8 2 -4 17
l7 24 -20 -23 c-18 -21 -20 -21 -37 -5 -17 17 -17 17 -12 -4 3 -13 2 -23 -3
-23 -5 0 -9 6 -9 13 0 16 -41 17 -52 2 -4 -6 -8 -2 -8 8 0 9 -5 17 -11 17 -6
0 -17 7 -25 15 -8 8 -21 12 -30 8 -8 -3 -14 -2 -12 3 2 5 -1 10 -6 11 -5 1
-13 7 -18 15 -7 9 -8 7 -5 -9 4 -20 1 -23 -21 -22 -24 0 -25 1 -7 9 20 9 20 9
0 9 -12 1 -26 -4 -33 -9 -6 -6 -10 -7 -8 -4 3 3 1 16 -4 28 -14 37 17 62 53
44 16 -8 18 -7 13 14 -4 16 -2 14 9 -7 l14 -30 2 40 c1 22 0 45 -1 50 -1 6 -3
30 -4 55 -1 40 1 45 22 46 27 2 27 0 0 -36 -17 -23 -19 -33 -10 -42 9 -9 12
-9 12 0 0 7 9 12 20 12 11 0 20 5 20 11 0 5 -5 7 -11 3 -8 -5 -10 2 -6 22 7
39 -9 70 -29 53 -11 -9 -14 -8 -14 5 0 9 -8 16 -20 16 -13 0 -18 5 -14 15 4 8
2 15 -4 15 -9 0 -15 18 -24 75 -2 14 2 19 12 17 10 -2 7 4 -7 17 -12 12 -27
21 -33 21 -10 0 -8 29 5 61 3 10 2 20 -4 24 -7 3 -11 -2 -11 -14 0 -11 -5 -23
-10 -26 -6 -4 -8 -11 -5 -16 4 -5 2 -9 -4 -9 -6 0 -7 15 -4 37 5 28 3 34 -7
28 -9 -6 -10 -2 -5 15 5 15 4 20 -4 16 -7 -5 -9 -1 -5 8 7 18 24 11 24 -10 0
-8 5 -14 10 -14 6 0 10 7 10 16 0 10 6 14 14 11 10 -4 13 -1 9 9 -3 9 -13 12
-23 9 -27 -8 -33 10 -15 44 8 16 12 37 8 47 -5 13 -2 15 15 9 14 -4 22 -2 22
5 0 7 -9 14 -21 17 -16 4 -17 8 -7 14 10 7 9 9 -4 9 -15 0 -18 -9 -18 -45 0
-25 -4 -45 -10 -45 -5 0 -10 -8 -10 -17 0 -15 -2 -15 -9 -4 -6 9 -4 19 6 29 9
9 13 27 11 44 -3 16 -1 31 4 34 15 9 9 34 -7 28 -8 -4 -15 -2 -15 4 0 18 24
20 43 4 14 -13 20 -13 30 -2 10 10 9 12 -5 7 -13 -5 -18 -1 -18 14 0 11 -4 18
-9 15 -5 -3 -9 4 -8 17 0 12 -3 31 -7 42 -6 15 -6 17 2 5 9 -12 14 -11 32 9
11 14 17 27 14 30 -4 3 -9 0 -11 -6 -7 -21 -29 -15 -43 11 -14 27 -8 56 12 55
10 0 10 -2 0 -6 -6 -2 -12 -13 -12 -24 0 -14 7 -19 30 -19 23 0 28 3 23 17 -8
21 -41 54 -50 51 -4 -2 -8 12 -9 31 -1 21 1 29 7 20 11 -19 19 -7 12 19 -3 12
-9 19 -14 16 -5 -3 -6 2 -3 10 9 24 21 19 32 -13 7 -19 7 -32 0 -39 -6 -6 -8
-16 -6 -24 9 -27 28 29 19 58 -4 16 -5 38 0 49 13 33 11 58 -5 52 -10 -4 -12
0 -9 14 8 29 21 23 28 -13 9 -37 35 -70 35 -44 0 9 -4 16 -10 16 -5 0 -10 4
-10 10 0 5 6 7 14 4 7 -3 16 2 20 12 4 12 2 15 -9 10 -12 -4 -14 0 -9 19 5 21
3 24 -12 19 -17 -5 -17 -4 0 7 15 9 21 9 24 1 2 -7 10 -12 18 -12 9 0 13 -4 9
-10 -3 -5 6 -15 21 -23 19 -10 23 -16 14 -22 -7 -4 -16 -2 -21 6 -4 7 -12 10
-16 5 -4 -5 -2 -11 5 -13 6 -3 9 -9 6 -14 -3 -6 5 -7 20 -3 23 6 26 3 27 -22
1 -38 4 -57 29 -189 12 -60 22 -118 21 -127 0 -10 5 -18 10 -18 6 0 8 -4 4 -9
-3 -5 1 -27 8 -49 8 -22 13 -53 11 -68 -2 -21 -1 -25 6 -14 7 11 10 4 11 -25
l1 -40 9 43 c11 59 38 102 79 130 39 26 78 24 163 -9 56 -22 80 -24 54 -5 -15
11 -15 17 -4 38 7 14 19 23 27 21 12 -4 12 -3 1 5 -11 8 -11 19 -2 61 14 65
14 111 1 111 -5 0 -10 -12 -11 -27 0 -16 -3 -22 -6 -15 -2 6 -8 10 -13 7 -13
-8 -22 63 -10 85 14 26 24 26 17 0 -3 -13 0 -20 9 -20 8 0 14 9 14 19 0 11 5
23 10 26 14 9 12 -39 -2 -53 -8 -8 -8 -12 -1 -12 6 0 13 7 17 15 3 8 10 15 16
15 6 0 8 -6 4 -12 -6 -10 -5 -10 7 -1 11 9 19 9 26 2 7 -7 10 4 11 33 2 63 9
105 22 125 9 15 10 10 6 -24 -7 -48 11 -61 20 -15 4 21 12 28 32 29 26 2 26 1
5 -7 -21 -9 -29 -31 -24 -69 2 -7 -2 -10 -8 -6 -16 9 -13 -22 2 -37 11 -10 11
-20 2 -53 -12 -40 -5 -96 8 -63 3 9 11 53 18 98 9 62 17 87 35 105 13 13 24
29 24 35 0 5 6 10 13 10 6 1 2 9 -11 19 -15 13 -20 25 -15 37 4 12 3 15 -5 10
-15 -9 -16 -46 -2 -46 6 0 10 -4 10 -10 0 -5 -6 -10 -13 -10 -16 0 -43 73 -33
89 4 6 2 11 -4 11 -6 0 -9 4 -5 9 3 5 0 13 -5 16 -7 5 -9 27 -5 63 4 32 7 63
8 70 1 18 37 -17 48 -47 5 -13 12 -49 15 -80 6 -62 16 -84 14 -31 -2 42 6 112
15 141 5 14 3 19 -3 15 -6 -4 -8 2 -5 14 8 31 23 23 24 -12 0 -18 3 -27 6 -20
2 6 9 12 14 12 5 0 4 -11 -2 -24 -14 -29 -3 -89 11 -66 6 9 5 17 -3 22 -8 5
-6 12 6 25 10 11 14 29 11 43 -3 20 -3 21 4 6 7 -16 11 -11 26 28 10 26 20 45
23 42 8 -8 -40 -125 -49 -120 -11 7 -10 -8 2 -26 9 -13 10 -13 10 1 0 8 6 24
14 34 13 18 14 17 14 -18 0 -21 3 -41 6 -44 3 -4 6 11 6 32 0 38 39 155 52
155 4 0 3 -12 -3 -27 -8 -21 -7 -25 1 -17 6 6 12 22 14 35 1 13 8 34 15 47 6
12 8 22 3 22 -10 0 5 49 27 89 7 13 9 21 3 17 -5 -3 -12 1 -16 9 -3 8 -1 15 4
15 5 0 7 7 4 15 -4 8 -1 15 6 15 7 0 10 8 7 20 -3 11 -1 22 4 25 4 3 5 13 2
22 -4 11 -3 14 5 9 7 -4 12 -1 12 8 0 8 7 22 16 31 14 13 19 14 25 3 7 -10 9
-8 9 6 0 15 3 16 15 6 12 -10 16 -9 21 4 5 14 9 14 22 4 13 -11 14 -10 3 10
-13 24 -9 27 19 12 15 -8 21 -6 29 7 8 16 11 14 22 -12 l12 -30 6 30 c4 20 9
26 14 18 5 -7 5 -19 1 -25 -5 -9 -2 -9 9 1 13 10 17 10 17 1 0 -7 7 -10 15 -6
8 3 15 1 15 -4 0 -6 -7 -10 -15 -10 -8 0 -15 -5 -15 -11 0 -5 5 -7 10 -4 16
10 12 -11 -5 -25 -17 -14 -21 -35 -4 -24 6 3 20 20 31 38 20 31 20 31 15 4 -3
-19 0 -25 10 -21 7 3 20 0 28 -7 12 -10 15 -9 15 4 0 10 -4 14 -10 11 -5 -3
-10 -2 -10 3 0 5 9 12 21 15 15 4 19 2 15 -8 -3 -9 0 -12 10 -8 7 3 14 9 14
14 0 5 5 9 11 9 6 0 8 -7 5 -16 -4 -10 -1 -14 6 -12 7 3 14 14 16 26 3 22 22
31 22 11 0 -7 18 6 40 27 22 22 44 40 50 40 5 1 15 2 20 3 6 0 10 7 10 15 0 7
8 16 18 20 9 3 24 9 32 14 8 5 30 16 48 25 32 16 33 16 30 -3 -2 -10 0 -19 5
-20 24 -1 29 1 24 13 -3 8 0 14 6 14 7 1 37 11 67 22 57 22 73 26 53 13 -6 -4
7 -8 30 -8 23 0 51 -4 62 -9 19 -7 19 -7 1 7 -16 13 -12 14 40 12 33 -1 65 3
72 9 8 6 12 6 12 -2 0 -8 6 -9 18 -3 9 5 25 8 35 7 9 -2 17 3 17 11 0 11 4 12
19 5 10 -6 21 -7 25 -4 4 4 13 8 20 9 7 1 23 5 35 9 12 4 20 2 19 -3 -3 -8 6
-15 15 -11 14 6 77 4 77 -3 0 -5 4 -7 9 -4 10 6 73 -56 113 -110 23 -31 46
-43 40 -21 -2 7 -13 22 -24 34 -11 12 -17 26 -13 32 3 6 1 11 -5 11 -7 0 -5 7
4 16 20 19 21 44 2 44 -7 0 -21 10 -29 23 -14 21 -13 25 1 36 10 6 11 9 3 5
-9 -4 -12 -2 -9 7 3 8 15 19 27 25 12 6 22 14 23 18 1 26 13 46 29 46 28 0 46
44 28 66 -9 11 -14 41 -14 77 0 42 -4 62 -14 65 -8 3 -11 0 -7 -6 3 -6 3 -17
0 -26 -5 -13 -9 -14 -20 -5 -17 14 -18 33 -1 23 6 -4 9 -4 5 1 -17 18 -192
105 -212 105 -19 0 -105 44 -106 55 -1 24 -20 38 -52 39 -25 1 -33 5 -32 18 1
10 -2 16 -6 13 -4 -2 -17 6 -28 18 -15 16 -18 27 -12 37 6 9 10 10 10 3 0 -13
90 39 114 66 10 11 12 31 9 69 l-6 52 -1583 0 -1584 0 2 -1477z m1795 1171
c-3 -3 -12 -4 -19 -1 -8 3 -5 6 6 6 11 1 17 -2 13 -5z m-147 -44 c0 -5 -24 -8
-52 -8 -42 1 -47 2 -23 8 42 9 75 9 75 0z m-235 -50 c-3 -5 3 -10 13 -10 26 0
93 -29 69 -30 -10 0 -27 5 -37 10 -16 8 -18 8 -14 -5 7 -16 -13 -19 -53 -9
-25 7 -31 24 -9 24 8 0 16 7 20 15 3 8 8 15 11 15 4 0 3 -4 0 -10z m95 -10 c0
-5 -2 -10 -4 -10 -3 0 -8 5 -11 10 -3 6 -1 10 4 10 6 0 11 -4 11 -10z m30 6
c0 -3 -4 -8 -10 -11 -5 -3 -10 -1 -10 4 0 6 5 11 10 11 6 0 10 -2 10 -4z m-30
-76 c0 -5 -4 -10 -10 -10 -5 0 -10 5 -10 10 0 6 5 10 10 10 6 0 10 -4 10 -10z
m-107 -7 c-18 -7 -16 -23 2 -23 8 0 15 6 15 13 0 8 3 7 9 -3 6 -8 8 -17 6 -21
-8 -11 -55 3 -55 16 0 7 -6 16 -12 18 -7 3 1 5 17 5 17 0 24 -2 18 -5z m2036
-244 c-29 -18 -44 -9 -19 11 15 11 26 15 29 8 2 -6 -3 -14 -10 -19z m-1519
-549 c0 -5 -5 -10 -11 -10 -5 0 -7 5 -4 10 3 6 8 10 11 10 2 0 4 -4 4 -10z
m-109 -163 c-10 -9 -11 -8 -5 6 3 10 9 15 12 12 3 -3 0 -11 -7 -18z m-178 -64
c4 -35 2 -41 -11 -36 -12 5 -14 1 -10 -15 6 -21 -16 -40 -26 -23 -7 10 16 61
27 61 4 0 7 14 7 32 0 42 6 33 13 -19z m-39 -192 c-5 -20 -8 -22 -11 -8 -3 9
-8 17 -12 17 -6 0 -7 21 -2 80 2 21 5 17 17 -19 10 -27 13 -53 8 -70z m22 84
c-1 -33 -16 -33 -16 0 0 14 4 25 9 25 5 0 8 -11 7 -25z m16 -63 c3 -19 0 -29
-9 -29 -8 0 -11 7 -8 14 3 8 5 21 5 29 0 24 8 15 12 -14z m-595 -14 c-3 -7 -5
-2 -5 12 0 14 2 19 5 13 2 -7 2 -19 0 -25z m633 -21 c0 -5 -4 -5 -10 -2 -5 3
-10 14 -10 23 0 15 2 15 10 2 5 -8 10 -19 10 -23z m-794 -27 c0 -12 -4 -16 -9
-11 -5 5 -6 14 -3 20 10 15 12 14 12 -9z m38 -9 c3 -5 -1 -11 -9 -14 -9 -4
-12 -1 -8 9 6 16 10 17 17 5z m633 -83 c-3 -7 -5 -2 -5 12 0 14 2 19 5 13 2
-7 2 -19 0 -25z m-692 2 c3 -5 2 -10 -4 -10 -5 0 -13 5 -16 10 -3 6 -2 10 4
10 5 0 13 -4 16 -10z m60 -120 c-3 -5 -10 -10 -16 -10 -5 0 -9 5 -9 10 0 6 7
10 16 10 8 0 12 -4 9 -10z m521 -29 c10 8 14 8 14 1 0 -6 -8 -16 -18 -21 -15
-8 -18 -5 -19 12 0 12 1 16 4 9 4 -10 8 -10 19 -1z m40 -39 c-3 -23 -7 -27
-35 -26 -17 1 -31 -3 -31 -9 0 -6 -3 -8 -6 -4 -8 7 58 77 68 71 3 -2 5 -17 4
-32z m-626 -82 c0 -11 -4 -20 -9 -20 -6 0 -9 9 -8 20 1 11 5 20 9 20 4 0 8 -9
8 -20z m-5 -90 c-4 -20 -11 -28 -16 -23 -6 6 -5 20 2 37 16 34 23 26 14 -14z
m63 -274 c23 5 27 2 27 -18 1 -13 5 -34 9 -47 6 -16 5 -21 -3 -17 -6 4 -11 16
-11 27 0 11 -4 17 -10 14 -6 -4 -7 1 -3 11 5 14 2 16 -15 12 -12 -4 -22 -5
-22 -3 0 2 -2 9 -3 17 -2 7 -2 10 0 6 3 -4 16 -5 31 -2z m82 -210 c0 -3 -4 -8
-10 -11 -5 -3 -10 -1 -10 4 0 6 5 11 10 11 6 0 10 -2 10 -4z m-3 -68 c-3 -8
-6 -5 -6 6 -1 11 2 17 5 13 3 -3 4 -12 1 -19z m-50 -40 c-3 -7 -5 -2 -5 12 0
14 2 19 5 13 2 -7 2 -19 0 -25z m-82 -68 c3 -5 1 -10 -4 -10 -6 0 -11 5 -11
10 0 6 2 10 4 10 3 0 8 -4 11 -10z m45 -15 c0 -8 -4 -17 -10 -20 -6 -4 -10 5
-10 20 0 15 4 24 10 20 6 -3 10 -12 10 -20z m-150 -37 c0 -5 -7 -3 -15 6 -8 8
-15 18 -15 22 0 3 7 1 15 -6 8 -7 15 -17 15 -22z m-36 6 c6 -15 4 -15 -11 -3
-10 7 -20 15 -22 16 -2 2 3 3 11 3 9 0 19 -7 22 -16z"/>
<path d="M3853 5056 c1 -43 -3 -69 -13 -82 -8 -10 -10 -15 -4 -11 7 4 3 -10
-7 -30 -11 -21 -19 -44 -19 -53 -1 -16 -75 -75 -115 -90 -14 -5 -25 -14 -25
-20 0 -5 -7 -10 -15 -10 -8 0 -15 -4 -15 -8 0 -5 -14 -22 -30 -39 -21 -21 -33
-47 -40 -83 -5 -28 -12 -56 -15 -61 -4 -5 -2 -9 4 -9 5 0 11 6 14 13 3 8 7 6
12 -7 5 -11 3 -21 -6 -27 -12 -8 -12 -10 0 -18 7 -5 10 -14 7 -20 -4 -6 -2
-11 3 -11 6 0 10 -3 10 -7 -4 -26 13 -48 66 -88 64 -49 155 -140 151 -152 -3
-7 0 -12 6 -10 5 1 12 -5 13 -13 2 -8 13 -42 25 -74 13 -36 24 -96 27 -150 5
-77 10 -98 35 -139 16 -27 33 -54 39 -60 43 -52 53 -66 70 -99 24 -46 24 -45
-6 -50 -18 -4 -25 -1 -26 11 0 11 -3 9 -9 -6 -5 -12 -17 -27 -27 -33 -11 -7
-12 -10 -3 -7 8 2 21 -2 28 -10 12 -12 9 -13 -15 -8 -15 3 -22 2 -15 -1 6 -3
12 -14 12 -25 0 -10 5 -19 10 -19 6 0 10 5 10 10 0 6 5 10 11 10 8 0 8 -4 -1
-15 -6 -8 -10 -20 -7 -27 2 -7 0 -21 -5 -31 -7 -13 -5 -24 5 -35 9 -9 17 -28
20 -42 2 -14 3 -6 1 17 -3 34 -1 41 11 37 8 -4 15 -1 15 5 0 10 -14 15 -32 12
-5 0 -8 3 -8 7 0 17 13 21 33 11 14 -8 18 -8 13 0 -4 6 -2 11 4 11 7 0 10 7 6
15 -3 9 0 15 9 15 8 0 15 5 15 12 0 7 12 23 27 36 21 17 35 22 56 18 26 -5 28
-4 21 17 -7 22 -7 22 15 2 19 -16 24 -17 31 -5 7 11 10 7 15 -13 4 -15 11 -27
16 -27 5 0 9 -5 9 -11 0 -6 -9 -8 -22 -3 -20 6 -21 5 -9 -10 7 -9 20 -16 27
-16 8 0 14 -8 14 -17 0 -9 6 -24 13 -32 24 -28 65 -198 59 -241 -1 -8 -4 -29
-5 -46 -2 -17 -7 -36 -11 -43 -5 -7 3 -23 18 -38 23 -22 33 -60 27 -96 -1 -5
3 -6 9 -2 6 4 10 -6 10 -24 0 -16 4 -32 9 -35 11 -7 41 -98 41 -123 0 -10 -7
-29 -16 -42 -14 -19 -14 -25 -3 -32 8 -5 22 -7 32 -5 10 2 21 -2 24 -10 3 -8
11 -14 19 -14 7 0 18 -8 23 -17 10 -17 10 -17 11 0 0 9 5 17 11 17 5 0 7 5 4
10 -3 6 -1 10 4 10 6 0 11 6 11 13 0 13 54 59 66 57 4 -1 10 3 14 10 4 6 13
12 21 13 8 2 20 6 27 10 6 5 16 6 21 2 5 -3 12 -1 16 5 4 6 12 5 21 -5 9 -8
23 -15 32 -15 15 0 15 -2 2 -10 -13 -9 -13 -10 0 -10 8 0 31 -15 51 -33 20
-17 53 -41 75 -52 21 -11 41 -23 44 -26 3 -3 19 -14 35 -23 17 -9 48 -27 70
-41 22 -13 43 -24 48 -25 4 0 7 558 7 1240 l0 1240 -634 0 -635 0 2 -64z
m-272 -459 c-10 -9 -11 -8 -5 6 3 10 9 15 12 12 3 -3 0 -11 -7 -18z"/>
<path d="M2799 4223 c-13 -16 -12 -17 4 -4 16 13 21 21 13 21 -2 0 -10 -8 -17
-17z"/>
<path d="M3516 4095 c24 -39 24 -40 24 -28 0 6 -9 21 -21 34 l-20 24 17 -30z"/>
<path d="M1661 3564 c0 -11 3 -14 6 -6 3 7 2 16 -1 19 -3 4 -6 -2 -5 -13z"/>
<path d="M1756 3515 c-4 -15 -5 -30 -1 -33 3 -3 5 2 5 12 0 9 5 14 10 11 12
-8 13 5 1 23 -6 10 -10 7 -15 -13z"/>
<path d="M1680 3506 c0 -9 5 -16 10 -16 6 0 10 4 10 9 0 6 -4 13 -10 16 -5 3
-10 -1 -10 -9z"/>
<path d="M3765 3500 c3 -5 8 -10 11 -10 2 0 4 5 4 10 0 6 -5 10 -11 10 -5 0
-7 -4 -4 -10z"/>
<path d="M1997 3483 c-4 -3 -7 -11 -7 -17 0 -6 5 -5 12 2 6 6 9 14 7 17 -3 3
-9 2 -12 -2z"/>
<path d="M3776 3475 c-8 -8 -22 -15 -30 -15 -9 0 -16 -4 -16 -10 0 -5 -7 -10
-15 -10 -9 0 -27 -11 -41 -25 -24 -24 -36 -29 -61 -26 -6 1 -14 -7 -17 -17 -4
-11 -18 -24 -32 -31 -21 -9 -25 -17 -21 -36 2 -14 0 -25 -4 -25 -5 0 -9 -8 -9
-18 0 -10 -5 -23 -12 -30 -9 -9 -9 -12 0 -12 6 0 -3 -30 -23 -72 -36 -74 -37
-99 -8 -146 7 -12 18 -20 23 -17 6 3 7 0 4 -8 -3 -8 7 -35 23 -59 27 -42 30
-43 84 -46 45 -3 56 -1 56 12 0 9 -4 16 -9 16 -5 0 -5 8 1 17 6 12 5 21 -7 31
-12 9 -12 11 -2 6 11 -6 10 -2 -2 13 -10 11 -18 23 -18 27 0 12 68 36 84 30 8
-3 25 0 38 7 13 7 32 12 43 10 16 -3 17 -1 6 13 -10 12 -11 16 -1 16 9 0 10 4
2 13 -8 10 -5 18 14 32 l25 18 -28 19 c-21 13 -23 18 -10 18 9 0 17 7 17 15 0
8 -7 15 -15 15 -8 0 -15 8 -15 19 0 16 -8 18 -64 17 -38 0 -64 3 -63 9 4 20
35 34 86 40 61 7 85 -6 75 -39 -5 -18 -3 -17 15 6 11 14 21 31 21 37 0 6 4 11
9 11 4 0 8 17 7 38 -2 43 -40 116 -72 137 -20 13 -25 13 -38 0z m-39 -357 c-3
-8 -6 -5 -6 6 -1 11 2 17 5 13 3 -3 4 -12 1 -19z m-152 -38 c3 -5 1 -10 -4
-10 -6 0 -11 5 -11 10 0 6 2 10 4 10 3 0 8 -4 11 -10z"/>
<path d="M940 3323 c0 -13 5 -23 10 -23 13 0 13 11 0 30 -8 12 -10 11 -10 -7z"/>
<path d="M1763 3315 c-3 -9 -3 -18 -1 -21 3 -3 8 4 11 16 6 23 -1 27 -10 5z"/>
<path d="M1592 3279 c-7 -11 -11 -24 -8 -27 10 -9 28 15 24 32 -2 14 -5 13
-16 -5z"/>
<path d="M2892 3285 c-18 -8 -39 -12 -47 -9 -8 4 -34 -1 -56 -10 -23 -9 -44
-15 -46 -12 -2 2 5 7 16 11 12 3 21 10 21 15 0 9 -71 -17 -80 -29 -11 -15
-103 -95 -97 -84 4 6 3 14 -3 18 -5 3 -46 -28 -89 -69 -44 -42 -77 -76 -73
-76 4 0 23 8 42 19 46 24 125 41 203 42 34 1 54 3 45 6 -38 10 -15 23 40 23
41 0 53 3 42 10 -10 7 1 8 34 3 32 -4 47 -3 43 4 -4 7 19 9 66 6 73 -5 190 -4
240 1 15 2 27 -1 27 -7 0 -5 9 -7 20 -4 11 3 20 1 20 -4 0 -5 11 -3 26 3 l25
12 -22 11 c-19 10 -19 13 -5 18 11 5 15 3 10 -4 -4 -7 -1 -10 7 -7 8 3 23 -2
34 -11 15 -12 14 -9 -3 11 -18 19 -20 27 -10 31 7 2 0 2 -16 -1 -29 -4 -29 -4
-12 14 17 17 17 18 1 30 -14 11 -23 11 -44 0 -28 -14 -47 -12 -72 10 -11 10
-51 15 -136 17 -91 1 -119 5 -116 15 6 15 6 15 -35 -3z"/>
<path d="M940 3238 c0 -23 17 -31 24 -12 4 9 4 19 1 22 -3 3 -5 -1 -5 -9 0
-11 -2 -11 -10 1 -8 13 -10 13 -10 -2z"/>
<path d="M980 3232 c0 -5 7 -16 16 -23 14 -12 16 -11 13 5 -4 20 -29 35 -29
18z"/>
<path d="M1590 3195 c0 -8 5 -15 10 -15 6 0 10 7 10 15 0 8 -4 15 -10 15 -5 0
-10 -7 -10 -15z"/>
<path d="M4165 3170 c-3 -5 -1 -10 4 -10 6 0 11 5 11 10 0 6 -2 10 -4 10 -3 0
-8 -4 -11 -10z"/>
<path d="M1535 3140 c-8 -13 9 -20 24 -11 10 6 9 10 -3 14 -8 3 -18 2 -21 -3z"/>
<path d="M1711 3114 c0 -11 3 -14 6 -6 3 7 2 16 -1 19 -3 4 -6 -2 -5 -13z"/>
<path d="M2955 3103 c-187 -45 -319 -99 -369 -152 l-26 -28 42 2 c24 1 50 -2
59 -6 9 -5 20 -5 24 -1 10 10 184 9 182 -2 -1 -5 4 -11 11 -13 6 -3 12 2 12
11 0 19 23 21 49 4 15 -9 26 -9 45 0 21 9 24 9 20 -3 -10 -26 6 -38 27 -19 10
9 16 21 12 27 -4 6 -1 7 7 2 9 -6 12 -4 8 7 -5 12 0 14 20 10 22 -4 25 -3 16
9 -6 8 -14 23 -18 33 -6 19 -6 19 12 3 21 -19 43 -24 24 -5 -17 17 -15 29 3
22 10 -4 15 0 15 12 0 40 -13 64 -32 64 -11 0 -29 5 -41 11 -24 14 -73 19
-102 12z m23 -108 c-1 -10 -13 -24 -25 -32 l-22 -15 17 40 c16 39 38 43 30 7z
m-202 -25 c3 0 3 8 0 18 -3 9 5 4 19 -13 13 -16 22 -31 19 -34 -6 -6 -76 -2
-83 4 -2 3 2 12 9 20 11 14 10 14 -13 6 -21 -8 -25 -7 -20 4 3 8 14 15 24 15
10 0 19 6 20 13 0 6 4 2 9 -10 5 -13 12 -23 16 -23z m-126 -1 c-27 -21 -71
-47 -55 -32 19 18 68 53 74 53 3 0 -5 -9 -19 -21z m330 -39 c0 -13 -11 -13
-30 0 -12 8 -11 10 8 10 12 0 22 -4 22 -10z"/>
<path d="M950 3080 c6 -11 8 -26 4 -32 -4 -7 -3 -8 4 -4 17 10 15 43 -3 50
-13 4 -14 2 -5 -14z"/>
<path d="M2580 3080 c-23 -7 -23 -8 -3 -9 12 -1 25 4 28 9 3 6 5 10 3 9 -2 -1
-14 -5 -28 -9z"/>
<path d="M1730 3001 c0 -6 5 -13 10 -16 6 -3 10 1 10 9 0 9 -4 16 -10 16 -5 0
-10 -4 -10 -9z"/>
<path d="M1791 2991 c-8 -6 -9 -11 -3 -15 6 -3 14 -1 17 5 9 14 2 20 -14 10z"/>
<path d="M968 2963 c7 -3 16 -2 19 1 4 3 -2 6 -13 5 -11 0 -14 -3 -6 -6z"/>
<path d="M4150 2946 c0 -13 -6 -28 -13 -34 -19 -16 -19 -56 0 -99 10 -21 18
-42 18 -48 1 -5 7 -30 14 -54 7 -23 10 -50 7 -58 -4 -9 -2 -11 6 -7 7 5 9 -2
5 -22 -3 -19 0 -35 10 -46 12 -14 13 -18 3 -18 -7 0 -10 -3 -7 -7 4 -3 2 -12
-4 -20 -6 -7 -8 -13 -3 -13 10 0 12 -165 2 -175 -16 -16 -124 -22 -162 -8 -22
7 -43 10 -47 6 -4 -5 -20 -48 -35 -98 -15 -49 -30 -94 -34 -100 -4 -5 -11 -28
-15 -50 -3 -22 -13 -53 -20 -70 -7 -16 -21 -53 -30 -82 -13 -41 -20 -51 -33
-46 -14 5 -15 3 -4 -8 17 -18 15 -27 -5 -32 -17 -4 -17 -5 0 -6 9 0 17 -6 17
-12 0 -5 -4 -7 -10 -4 -6 3 -7 -1 -4 -9 4 -10 1 -16 -7 -16 -10 0 -10 -3 -1
-12 16 -16 15 -28 -1 -28 -8 0 -14 -7 -14 -15 0 -8 4 -12 9 -9 10 7 10 -7 -1
-25 -5 -7 -14 -10 -21 -6 -7 4 -4 -5 6 -21 17 -26 18 -28 2 -21 -10 3 -17 3
-17 -1 3 -19 -2 -25 -11 -12 -8 13 -10 13 -10 1 0 -8 10 -25 22 -38 12 -13 16
-23 9 -23 -6 0 -14 7 -17 15 -11 26 -24 5 -19 -31 3 -26 0 -34 -11 -34 -12 0
-14 -7 -8 -32 6 -30 5 -31 -10 -19 -9 8 -15 20 -12 26 2 7 0 18 -6 26 -8 12
-9 12 -5 -1 2 -8 0 -23 -5 -32 -5 -11 -5 -26 2 -40 11 -22 10 -22 -4 -4 -9 11
-16 24 -16 29 0 4 -5 5 -10 2 -7 -4 -6 -14 1 -28 9 -16 9 -22 0 -25 -6 -2 -8
-9 -5 -14 4 -7 2 -8 -5 -4 -6 4 -9 11 -6 16 3 5 1 11 -4 14 -5 4 -13 -3 -16
-15 -6 -19 -18 -18 -21 2 -3 22 -6 23 -13 4 -5 -11 -4 -29 2 -40 9 -18 9 -19
-7 -6 -9 8 -15 19 -12 26 2 6 -2 12 -10 12 -19 0 -18 -16 3 -39 9 -10 11 -18
6 -18 -6 0 -18 10 -27 23 -9 12 -14 16 -10 8 5 -11 3 -13 -9 -8 -10 4 -17 1
-17 -5 0 -7 -11 3 -25 22 -16 21 -25 28 -25 18 0 -23 -21 -27 -47 -10 -21 13
-24 12 -32 -9 -9 -23 -10 -23 -12 6 -1 18 -3 23 -6 13 -6 -26 -18 -22 -33 10
l-13 27 -8 -30 c-3 -16 -7 -24 -8 -17 -2 24 -26 6 -33 -24 -6 -24 -7 -23 -3 8
4 38 -13 49 -27 18 -4 -9 -7 -1 -8 20 -1 34 -1 34 -13 12 -7 -12 -17 -19 -22
-15 -4 4 -5 0 -2 -9 3 -10 2 -20 -3 -23 -6 -4 -10 2 -10 11 0 16 -1 16 -20 -1
-23 -20 -59 -13 -41 8 8 10 7 14 -4 14 -7 0 -13 -5 -12 -10 1 -5 -4 -12 -10
-14 -7 -3 -13 1 -13 7 0 9 -5 9 -17 -1 -15 -13 -15 -12 -4 10 13 23 12 22 -25
-5 l-37 -29 28 45 28 45 -27 -24 c-18 -17 -26 -20 -26 -10 -1 11 -4 10 -14 -3
-16 -22 -27 -23 -20 -3 3 8 15 17 26 21 24 7 16 17 -16 19 -17 0 -22 -4 -18
-14 3 -9 1 -12 -6 -7 -11 6 -17 -5 -13 -27 1 -4 -8 -2 -19 5 -18 12 -19 13 -2
20 13 5 13 7 2 8 -10 0 -5 9 14 25 17 13 33 22 38 19 4 -3 16 0 25 6 16 10 15
11 -4 7 -13 -3 -23 -3 -23 0 0 3 10 13 23 24 20 17 20 18 2 12 -11 -3 -24 -13
-28 -20 -5 -7 -12 -11 -17 -8 -5 3 -12 0 -16 -6 -5 -8 -3 -9 6 -4 8 5 11 4 7
-3 -4 -5 -17 -8 -29 -4 -13 3 -19 1 -15 -5 4 -6 0 -16 -8 -23 -8 -7 -13 -16
-10 -20 3 -4 -1 -10 -9 -13 -10 -4 -12 0 -8 15 4 16 2 19 -9 13 -12 -8 -12 -6
0 8 7 9 12 17 10 18 -31 6 -40 5 -50 -7 -8 -10 -8 -14 0 -14 6 0 11 5 11 12 0
6 2 9 5 6 11 -10 -6 -34 -25 -35 -14 -1 -17 3 -13 15 6 16 5 16 -13 0 -19 -16
-20 -16 -32 2 -17 28 -15 46 7 67 10 10 22 29 25 43 l7 25 -14 -24 c-21 -35
-48 -37 -42 -3 3 16 -1 10 -10 -13 -9 -22 -17 -48 -18 -57 -2 -10 -7 -21 -11
-25 -5 -5 -7 8 -4 27 7 42 -5 84 -15 57 -3 -9 -2 -19 3 -22 7 -4 7 -13 0 -24
-5 -10 -6 -22 -2 -26 4 -4 0 -6 -8 -3 -8 2 -22 -5 -32 -16 -10 -12 -17 -16
-18 -11 0 6 11 22 24 37 14 14 22 29 19 32 -3 3 -14 -3 -23 -14 -15 -17 -19
-18 -24 -5 -3 9 0 15 8 15 14 0 26 21 26 43 0 7 -4 6 -10 -3 -7 -11 -10 -5
-11 25 -1 22 -1 43 0 48 0 4 -2 7 -6 7 -5 0 -9 -23 -10 -51 0 -28 -5 -55 -11
-61 -6 -6 -8 0 -7 16 2 13 -3 32 -9 42 -11 15 -12 12 -8 -16 3 -23 1 -31 -7
-26 -6 4 -11 14 -11 21 0 21 -37 38 -43 20 -3 -7 -1 -16 6 -19 7 -2 4 -5 -5
-5 -14 -1 -18 8 -19 42 -2 29 -3 34 -6 15 -4 -28 -23 -40 -23 -15 0 8 -3 7 -9
-2 -8 -12 -12 -10 -22 12 l-12 27 -24 -26 c-12 -14 -23 -31 -23 -39 0 -23 -30
-5 -31 19 -1 15 -3 12 -10 -11 -5 -18 -12 -33 -15 -33 -4 0 -3 7 0 16 7 18
-12 59 -22 49 -4 -4 -7 -10 -7 -13 -2 -24 -19 -52 -31 -52 -13 0 -13 3 -1 20
11 16 12 30 4 68 -6 26 -13 49 -16 52 -4 3 -8 16 -10 30 -1 14 -6 27 -10 30
-4 3 -13 14 -20 25 -10 17 -11 15 -5 -15 4 -19 7 -40 7 -47 0 -7 4 -10 9 -7 5
3 6 -7 2 -22 -5 -18 -3 -25 4 -20 6 3 14 2 17 -4 4 -6 3 -10 -2 -9 -20 3 -33
-2 -33 -15 0 -7 -9 -25 -21 -40 -16 -20 -18 -30 -10 -40 6 -7 9 -21 5 -30 -5
-12 0 -16 19 -16 14 0 29 -5 32 -10 3 -6 28 -8 56 -6 47 3 65 -6 34 -18 -22
-8 -18 -36 4 -36 11 0 21 -4 23 -10 2 -5 15 -11 31 -12 15 -1 27 -8 27 -15 0
-7 5 -13 10 -13 6 0 10 4 10 9 0 5 11 11 25 13 19 4 25 1 25 -13 0 -12 5 -16
15 -13 8 4 13 10 10 14 -3 4 3 14 13 21 16 13 16 13 2 -5 -14 -18 -13 -19 12
-13 22 6 26 4 22 -7 -3 -9 -12 -12 -22 -8 -15 5 -15 4 0 -12 10 -9 23 -14 29
-10 7 4 9 3 6 -3 -9 -14 46 -34 63 -23 8 5 19 3 26 -3 35 -31 43 -34 77 -32
20 2 37 -1 37 -6 0 -6 5 -7 10 -4 6 3 10 1 10 -4 0 -6 14 -11 30 -11 17 0 30
-4 30 -8 0 -9 60 -35 77 -33 20 3 54 -19 47 -30 -4 -6 -12 -5 -22 3 -13 11
-14 11 -10 -2 2 -8 16 -15 30 -15 19 -1 24 3 21 15 -4 13 -4 13 6 0 6 -9 7
-18 1 -24 -18 -18 -10 -25 38 -32 26 -3 59 -13 74 -20 34 -18 38 -17 38 2 0 9
5 12 12 7 23 -14 70 -13 65 2 -4 8 1 11 13 8 22 -6 63 15 55 28 -4 5 -3 9 2 8
4 -2 20 4 36 11 15 7 29 11 32 8 3 -2 19 -51 36 -109 35 -119 138 -387 179
-469 16 -30 57 -83 93 -118 49 -47 69 -76 85 -120 29 -80 132 -416 132 -430 0
-9 151 -12 620 -12 l620 0 0 550 0 550 -38 -6 c-34 -5 -39 -3 -66 33 -55 71
-207 214 -249 234 -23 10 -54 19 -69 19 -15 0 -62 14 -105 31 -43 17 -106 40
-140 50 -90 28 -187 76 -195 96 -10 26 -10 103 0 103 5 0 19 25 32 55 13 30
26 52 31 50 4 -3 9 5 11 17 2 16 9 22 22 20 13 -2 16 0 10 10 -12 18 -14 38
-5 38 13 0 22 102 10 116 -6 7 -8 18 -4 24 3 5 0 10 -7 10 -8 0 -15 12 -16 26
-1 15 -6 32 -12 39 -5 6 -12 31 -14 56 -3 24 -12 69 -20 99 -8 30 -17 87 -19
125 -4 67 -24 135 -38 135 -4 0 -3 17 2 38 11 50 11 54 -3 47 -7 -4 -5 0 6 9
10 8 20 30 22 48 2 18 9 35 14 36 6 2 10 12 10 23 0 14 -7 19 -30 19 -33 0
-50 22 -50 68 0 16 -4 42 -9 58 -6 16 -15 55 -21 87 -11 57 -30 78 -30 33z
m-1910 -1272 c0 -2 -7 -4 -15 -4 -8 0 -15 4 -15 10 0 5 7 7 15 4 8 -4 15 -8
15 -10z m170 -18 c0 -3 -4 -8 -10 -11 -5 -3 -10 -1 -10 4 0 6 5 11 10 11 6 0
10 -2 10 -4z m-179 -39 c-10 -9 -11 -8 -5 6 3 10 9 15 12 12 3 -3 0 -11 -7
-18z m249 -23 c0 -30 -25 -58 -42 -48 -8 5 -5 10 9 15 16 6 19 14 15 40 -3 22
-1 30 7 25 6 -4 11 -18 11 -32z m57 4 c-3 -7 -5 -2 -5 12 0 14 2 19 5 13 2 -7
2 -19 0 -25z m-88 -8 c11 -24 11 -24 -3 -6 -16 20 -16 20 -17 0 0 -11 -3 -14
-6 -6 -5 13 4 48 11 41 2 -2 9 -15 15 -29z m-224 0 c-3 -5 -12 -10 -18 -10 -7
0 -6 4 3 10 19 12 23 12 15 0z m121 -17 c-10 -10 -19 5 -10 18 6 11 8 11 12 0
2 -7 1 -15 -2 -18z m167 -14 c-5 -5 -9 3 -11 19 -1 24 0 25 9 9 7 -11 7 -23 2
-28z m-243 16 c0 -8 -4 -15 -10 -15 -5 0 -10 7 -10 15 0 8 5 15 10 15 6 0 10
-7 10 -15z m40 11 c0 -3 -4 -8 -10 -11 -5 -3 -10 -1 -10 4 0 6 5 11 10 11 6 0
10 -2 10 -4z m77 -58 c-3 -8 -6 -5 -6 6 -1 11 2 17 5 13 3 -3 4 -12 1 -19z
m329 -42 c-13 -26 -14 -26 -19 -5 -3 12 -1 30 6 40 18 29 30 -3 13 -35z m-142
4 c-6 -6 -10 -2 -11 12 -2 16 1 18 10 9 7 -7 8 -14 1 -21z m-134 6 c0 -2 -7
-7 -16 -10 -8 -3 -12 -2 -9 4 6 10 25 14 25 6z m15 -16 c-3 -5 -12 -10 -18
-10 -7 0 -6 4 3 10 19 12 23 12 15 0z m373 -3 c15 6 15 5 3 -10 -16 -20 -12
-21 26 -7 l28 10 -28 -21 c-15 -11 -25 -24 -23 -28 3 -4 -7 -8 -20 -9 -18 -1
-23 2 -17 11 17 27 11 35 -15 21 -16 -8 -31 -10 -42 -4 -11 6 -22 5 -31 -3 -7
-7 -6 -2 4 9 10 12 29 22 43 22 14 0 31 5 37 11 7 7 13 8 15 2 2 -5 11 -7 20
-4z m-141 -17 c1 -11 -8 -25 -20 -32 -21 -10 -21 -10 -7 7 12 15 13 19 1 23
-11 4 -11 6 0 13 21 13 25 11 26 -11z m215 -22 c-7 -7 -12 -8 -12 -2 0 14 12
26 19 19 2 -3 -1 -11 -7 -17z m43 -28 c-10 -11 -21 -17 -24 -14 -3 3 3 12 13
20 28 20 32 17 11 -6z m105 6 c0 -3 -4 -8 -10 -11 -5 -3 -10 -1 -10 4 0 6 5
11 10 11 6 0 10 -2 10 -4z m-227 -27 c-6 -6 -37 -13 -69 -14 -37 -3 -53 0 -44
5 8 5 30 9 47 8 18 -1 36 2 40 5 3 4 13 7 22 7 11 0 12 -3 4 -11z"/>
<path d="M951 2934 c0 -11 3 -14 6 -6 3 7 2 16 -1 19 -3 4 -6 -2 -5 -13z"/>
<path d="M1750 2929 c0 -5 5 -7 10 -4 6 3 10 8 10 11 0 2 -4 4 -10 4 -5 0 -10
-5 -10 -11z"/>
<path d="M1256 2891 c-16 -3 -31 -12 -34 -18 -5 -17 -3 -16 44 7 41 20 39 22
-10 11z"/>
<path d="M3040 2890 c-8 -5 -10 -10 -5 -11 6 0 1 -4 -10 -9 -14 -6 -15 -9 -5
-9 9 -1 23 8 33 19 18 21 12 26 -13 10z"/>
<path d="M1100 2866 c0 -2 7 -7 16 -10 8 -3 12 -2 9 4 -6 10 -25 14 -25 6z"/>
<path d="M899 2850 c-7 -5 -10 -12 -7 -15 4 -4 13 -3 20 1 18 12 41 11 51 -1
5 -6 7 -5 5 4 -5 16 -48 23 -69 11z"/>
<path d="M955 2780 c3 -5 8 -10 11 -10 2 0 4 5 4 10 0 6 -5 10 -11 10 -5 0 -7
-4 -4 -10z"/>
<path d="M941 2734 c0 -11 3 -14 6 -6 3 7 2 16 -1 19 -3 4 -6 -2 -5 -13z"/>
<path d="M970 2741 c0 -5 7 -11 14 -14 10 -4 13 -1 9 9 -6 15 -23 19 -23 5z"/>
<path d="M1503 2700 c-20 -12 -33 -28 -33 -40 0 -27 9 -25 48 10 51 47 42 65
-15 30z"/>
<path d="M1155 2700 c-3 -5 -1 -10 4 -10 6 0 11 5 11 10 0 6 -2 10 -4 10 -3 0
-8 -4 -11 -10z"/>
<path d="M1040 2560 c0 -5 5 -10 11 -10 5 0 7 5 4 10 -3 6 -8 10 -11 10 -2 0
-4 -4 -4 -10z"/>
<path d="M990 2550 c0 -13 18 -22 24 -11 3 5 -1 11 -9 15 -8 3 -15 1 -15 -4z"/>
<path d="M1070 2490 c0 -5 5 -10 11 -10 5 0 7 5 4 10 -3 6 -8 10 -11 10 -2 0
-4 -4 -4 -10z"/>
<path d="M3166 2414 c-4 -9 -4 -19 -1 -22 3 -3 5 -2 5 2 0 4 12 -2 26 -13 15
-12 40 -21 58 -20 l31 1 -32 9 c-17 5 -41 20 -51 34 -23 29 -28 30 -36 9z"/>
<path d="M1645 2410 c11 -5 34 -8 50 -8 29 0 29 0 5 8 -14 4 -36 8 -50 8 -23
1 -23 0 -5 -8z"/>
<path d="M3395 2399 c-100 -31 -98 -49 2 -29 26 5 65 11 86 14 62 7 60 18 -4
29 -15 2 -53 -4 -84 -14z"/>
<path d="M3600 2400 c-13 -9 -13 -11 0 -19 10 -7 0 -11 -35 -13 -28 -2 -49 -7
-47 -13 2 -5 10 -9 17 -9 9 1 14 -7 13 -21 -2 -20 -5 -22 -33 -13 -50 16 -95
19 -95 8 0 -6 -4 -8 -10 -5 -5 3 -10 1 -10 -4 0 -6 -12 -11 -26 -11 -14 0 -23
-4 -19 -9 3 -5 -4 -12 -15 -16 -11 -4 -17 -11 -14 -17 4 -7 2 -8 -4 -4 -12 7
-44 -6 -43 -17 3 -18 0 -19 -18 -3 -18 16 -19 16 -17 -1 0 -10 -5 -17 -11 -16
-7 2 -13 -2 -13 -8 0 -5 -4 -8 -8 -5 -4 2 -13 -4 -19 -14 -10 -14 -8 -22 6
-39 18 -21 37 -29 27 -12 -4 5 3 7 13 4 13 -3 23 2 30 16 15 27 29 27 41 -1
l9 -23 0 22 c1 19 4 21 31 13 19 -5 28 -5 25 1 -4 5 -1 9 5 9 6 0 8 5 5 10 -7
11 8 14 19 3 11 -11 46 -14 46 -4 0 14 32 18 62 8 22 -7 35 -4 65 14 25 16 38
19 41 11 2 -7 8 -10 13 -6 5 3 24 -4 43 -15 18 -11 36 -18 39 -14 4 3 7 -1 7
-11 0 -11 5 -15 13 -10 9 5 9 4 1 -5 -9 -10 -21 -9 -55 2 -24 8 -45 11 -47 6
-2 -5 -10 -9 -19 -9 -25 0 -73 -33 -73 -51 0 -10 8 -20 18 -22 10 -3 6 -6 -13
-8 -38 -3 -59 -6 -65 -9 -3 -1 -15 -4 -26 -5 -12 -1 -34 -5 -50 -9 -21 -5 -25
-4 -14 4 17 11 18 11 -35 14 -22 1 -61 -6 -86 -15 -67 -26 -139 -34 -149 -19
-5 8 -3 19 5 27 16 15 29 18 20 3 -3 -5 -1 -10 4 -10 6 0 11 6 11 13 0 8 3 7
10 -3 14 -22 24 13 11 38 -8 15 -8 22 2 25 8 3 5 11 -9 27 l-22 22 -11 -21
c-7 -12 -9 -27 -5 -34 6 -9 4 -9 -8 0 -12 11 -18 9 -32 -6 -10 -11 -25 -17
-34 -14 -9 4 -13 2 -9 -4 5 -7 -1 -9 -15 -5 -14 3 -19 2 -14 -6 4 -7 3 -12 -2
-12 -5 0 -12 -18 -16 -40 -4 -26 -11 -40 -21 -40 -8 0 -14 -3 -13 -7 1 -5 -4
-26 -11 -48 -7 -23 -11 -52 -9 -65 3 -24 4 -24 21 8 10 18 22 30 27 27 6 -4
10 -1 10 4 0 6 5 11 11 11 7 0 19 9 29 20 15 18 125 44 142 34 3 -2 8 0 10 4
1 5 46 16 98 25 73 12 98 12 109 4 12 -10 13 -9 6 2 -6 11 -2 13 21 9 16 -3
54 -2 84 3 78 13 110 16 110 12 0 -2 -4 -12 -10 -22 -8 -16 -5 -18 17 -18 29
0 62 31 63 59 0 15 7 13 50 -12 l50 -30 25 22 c28 24 33 48 9 48 -8 0 -13 3
-10 8 11 18 16 121 6 127 -6 3 -7 11 -4 17 4 6 -1 8 -13 4 -13 -4 -20 -2 -20
8 0 9 5 12 11 9 6 -4 5 1 -3 10 -7 9 -17 14 -22 12 -4 -3 -11 0 -16 8 -4 7
-20 18 -36 25 -15 6 -32 24 -38 38 -9 25 -10 26 -23 9 -12 -16 -13 -15 -11 13
1 26 -2 32 -19 32 -12 0 -28 -5 -36 -10z m-65 -110 c3 -5 1 -10 -4 -10 -6 0
-11 5 -11 10 0 6 2 10 4 10 3 0 8 -4 11 -10z m295 -100 c0 -5 -2 -10 -4 -10
-3 0 -8 5 -11 10 -3 6 -1 10 4 10 6 0 11 -4 11 -10z m-460 -134 c0 -2 -7 -6
-15 -10 -8 -3 -15 -1 -15 4 0 6 7 10 15 10 8 0 15 -2 15 -4z m-100 -26 c-8 -5
-22 -9 -30 -9 -10 0 -8 3 5 9 27 12 43 12 25 0z"/>
<path d="M1043 2381 c-6 -10 -8 -23 -4 -29 4 -6 11 -1 18 14 13 28 2 41 -14
15z"/>
<path d="M1881 2384 c0 -11 3 -14 6 -6 3 7 2 16 -1 19 -3 4 -6 -2 -5 -13z"/>
<path d="M1915 2286 c4 -67 9 -85 21 -74 3 4 1 15 -5 26 -6 11 -8 34 -5 50 3
17 1 38 -5 49 -8 14 -9 1 -6 -51z"/>
<path d="M946 2293 c-12 -12 -5 -23 14 -23 11 0 20 4 20 9 0 11 -26 22 -34 14z"/>
<path d="M1961 2274 c0 -11 3 -14 6 -6 3 7 2 16 -1 19 -3 4 -6 -2 -5 -13z"/>
<path d="M1048 2253 c7 -3 16 -2 19 1 4 3 -2 6 -13 5 -11 0 -14 -3 -6 -6z"/>
<path d="M1930 2116 c0 -8 4 -17 9 -20 5 -4 7 3 4 14 -6 23 -13 26 -13 6z"/>
<path d="M1790 2110 c-13 -8 -13 -10 2 -10 9 0 20 5 23 10 8 13 -5 13 -25 0z"/>
<path d="M1957 2100 c3 -11 0 -20 -6 -20 -7 0 -8 -8 -2 -22 4 -13 6 -29 4 -36
-3 -7 1 -10 9 -7 9 4 14 -2 15 -15 1 -11 -2 -18 -8 -15 -5 4 -9 2 -9 -3 0 -12
30 -37 31 -26 0 5 2 24 4 42 1 19 -3 39 -11 47 -8 7 -14 25 -14 39 0 14 -4 27
-9 30 -5 4 -7 -3 -4 -14z"/>
<path d="M3479 2099 c-10 -6 -4 -9 19 -9 17 0 32 2 32 4 0 9 -39 13 -51 5z"/>
<path d="M2021 2066 c7 -15 15 -23 17 -16 3 7 -3 19 -13 28 -15 16 -16 15 -4
-12z"/>
<path d="M3447 2079 c7 -7 15 -10 18 -7 3 3 -2 9 -12 12 -14 6 -15 5 -6 -5z"/>
<path d="M2170 2071 c0 -6 4 -13 10 -16 6 -3 7 1 4 9 -7 18 -14 21 -14 7z"/>
<path d="M2234 2032 c-1 -35 1 -41 6 -22 11 34 12 70 3 70 -5 0 -9 -21 -9 -48z"/>
<path d="M2080 2061 c0 -6 4 -13 10 -16 6 -3 7 1 4 9 -7 18 -14 21 -14 7z"/>
<path d="M2356 2027 c3 -10 9 -15 12 -12 3 3 0 11 -7 18 -10 9 -11 8 -5 -6z"/>
<path d="M2071 1938 c5 -17 14 -36 20 -42 11 -11 11 -8 -7 54 -3 11 -9 20 -14
20 -5 0 -4 -14 1 -32z"/>
<path d="M1998 1944 c-2 -10 4 -28 14 -38 10 -11 19 -29 19 -40 3 -45 -4 -102
-13 -114 -8 -9 -5 -11 13 -9 18 3 25 11 26 33 2 25 1 26 -7 9 -9 -17 -10 -15
-6 10 2 17 6 40 9 53 3 12 1 22 -4 22 -6 0 -7 9 -4 21 5 15 4 19 -4 15 -7 -5
-17 6 -25 25 -11 27 -15 29 -18 13z"/>
<path d="M2026 1935 c4 -8 10 -15 15 -15 4 0 6 7 3 15 -4 8 -10 15 -15 15 -4
0 -6 -7 -3 -15z"/>
<path d="M3670 1920 c0 -6 -8 -10 -17 -8 -11 2 -17 -2 -15 -11 2 -8 -3 -11
-13 -8 -8 4 -15 1 -15 -6 0 -8 -3 -8 -9 2 -6 10 -10 10 -16 1 -6 -9 -10 -9
-16 1 -8 12 -10 12 -18 0 -5 -8 -19 -12 -35 -9 -15 3 -29 1 -32 -4 -3 -5 -11
-7 -18 -5 -13 5 -17 -16 -15 -85 0 -10 5 -18 10 -18 6 0 7 5 4 10 -3 6 -2 10
2 10 5 0 13 -10 18 -22 8 -18 18 -22 45 -22 78 2 82 4 76 19 -3 8 -1 15 4 15
5 0 5 12 0 29 -7 26 -6 28 17 25 20 -2 24 1 20 17 -4 15 -2 17 11 10 10 -4 23
-6 30 -4 10 4 10 8 0 21 -11 13 -10 15 4 9 15 -5 16 -3 6 18 -11 25 -28 34
-28 15z"/>
<path d="M2230 1871 c0 -5 5 -13 10 -16 6 -3 10 -2 10 4 0 5 -4 13 -10 16 -5
3 -10 2 -10 -4z"/>
<path d="M2147 1849 c7 -9 10 -18 7 -22 -3 -3 -1 -14 5 -24 9 -16 10 -15 11 8
0 15 -8 33 -17 40 -16 12 -17 12 -6 -2z"/>
<path d="M2080 1788 c0 -9 -3 -24 -7 -34 -5 -13 -3 -15 8 -9 12 8 12 6 0 -8
-7 -9 -20 -17 -27 -17 -8 0 -14 -5 -14 -11 0 -6 7 -8 16 -5 12 4 15 2 10 -9
-3 -8 0 -15 7 -15 8 0 8 -3 -2 -9 -10 -7 -8 -12 10 -25 22 -15 80 -24 66 -10
-3 4 -1 16 5 27 8 17 6 23 -13 39 -22 18 -22 19 -2 9 20 -10 23 -8 29 24 3 20
4 39 0 42 -3 3 -9 -8 -12 -26 -5 -23 -10 -29 -19 -21 -6 5 -15 7 -18 3 -4 -3
-7 3 -7 13 0 11 -7 29 -15 40 -12 16 -14 17 -15 2z m50 -118 c0 -5 -5 -10 -11
-10 -5 0 -7 5 -4 10 3 6 8 10 11 10 2 0 4 -4 4 -10z"/>
<path d="M2130 1770 c0 -5 5 -10 11 -10 5 0 7 5 4 10 -3 6 -8 10 -11 10 -2 0
-4 -4 -4 -10z"/>
<path d="M2740 1731 c0 -11 4 -22 9 -25 4 -3 6 6 3 19 -5 30 -12 33 -12 6z"/>
<path d="M2183 1728 c-4 -7 -8 -18 -9 -24 -1 -6 -5 -22 -9 -35 -7 -21 -6 -22
8 -7 9 9 19 30 22 47 6 33 1 39 -12 19z"/>
<path d="M2277 1720 c-3 -11 -1 -23 4 -26 5 -3 9 6 9 20 0 31 -6 34 -13 6z"/>
<path d="M2633 1653 c-1 -19 1 -22 8 -12 11 17 12 39 2 39 -5 0 -9 -12 -10
-27z"/>
<path d="M2680 1655 c0 -8 2 -15 4 -15 2 0 6 7 10 15 3 8 1 15 -4 15 -6 0 -10
-7 -10 -15z"/>
<path d="M2771 1563 c-10 -22 -14 -24 -22 -12 -7 11 -8 9 -6 -8 5 -38 16 -38
32 2 18 43 15 59 -4 18z"/>
<path d="M2793 1555 c-3 -9 -3 -18 -1 -21 3 -3 8 4 11 16 6 23 -1 27 -10 5z"/>
<path d="M3073 1520 c-27 -33 -28 -40 -7 -40 8 0 12 5 9 11 -4 6 3 21 16 35
12 13 18 24 13 23 -5 0 -19 -13 -31 -29z"/>
<path d="M3560 1546 c0 -2 8 -10 18 -17 15 -13 16 -12 3 4 -13 16 -21 21 -21
13z"/>
<path d="M3119 1494 c-22 -25 -22 -26 -3 -16 12 6 24 18 28 27 8 21 3 19 -25
-11z"/>
<path d="M3186 976 c-16 -38 -44 -90 -62 -116 -27 -39 -30 -49 -18 -54 11 -4
28 21 65 98 28 57 49 112 47 122 -2 11 -14 -8 -32 -50z"/>
<path d="M2884 784 c27 -14 57 -23 67 -21 11 3 19 2 19 -3 0 -15 50 -17 61 -3
17 19 6 25 -24 14 -15 -6 -28 -7 -31 -3 -2 4 -19 9 -36 10 -18 1 -45 9 -60 17
-16 8 -33 15 -37 15 -4 -1 14 -12 41 -26z"/>
<path d="M3146 720 c-30 -19 -46 -36 -43 -44 3 -8 -3 -22 -14 -32 -10 -9 -19
-12 -19 -7 0 7 -14 6 -37 -3 -50 -17 -87 -18 -77 -1 5 8 2 8 -9 -2 -28 -22
-20 -34 18 -27 47 9 45 -10 -2 -23 -21 -6 -43 -11 -50 -11 -9 0 -239 -291
-312 -395 -14 -20 -14 -20 7 -1 17 14 22 16 22 5 0 -12 2 -12 9 1 6 8 7 18 4
24 -10 16 21 -7 35 -26 7 -10 22 -22 32 -28 16 -8 18 -8 14 5 -4 8 -1 15 5 15
6 0 11 -7 11 -16 0 -11 5 -14 18 -9 9 4 22 8 29 8 7 0 10 4 7 9 -3 4 0 8 6 8
6 0 8 5 5 10 -3 6 -2 10 3 10 5 0 41 -34 79 -75 66 -70 73 -75 112 -75 34 0
41 -3 41 -20 0 -19 7 -20 160 -20 l160 0 -6 48 c-4 26 -12 59 -19 74 -10 21
-10 29 1 40 11 11 12 21 4 44 -6 18 -9 102 -8 204 l3 175 34 3 c57 6 81 -6 98
-45 12 -30 17 -34 24 -21 7 13 22 16 77 13 53 -3 64 -1 51 8 -8 7 -35 28 -60
48 -83 67 -277 159 -336 159 -16 0 -51 -14 -77 -30z"/>
<path d="M3642 397 c-5 -6 -8 -23 -7 -37 1 -14 6 -72 10 -130 4 -58 10 -114
12 -125 3 -11 8 -38 12 -60 5 -35 10 -40 35 -43 15 -2 26 0 23 5 -3 4 -8 53
-11 108 -11 178 -28 273 -54 289 -5 3 -14 0 -20 -7z"/>
<path d="M2510 68 c-30 -46 -31 -48 -17 -43 15 7 52 65 40 65 -5 0 -15 -10
-23 -22z"/>
</g>
</svg>
